# xmcd
#
# Track frame offsets: 
#        182
#        20790
#        35807
#        53305
#        74450
#        94225
#        105645
#        121582
#        134880
#        155510
#        168487
#        186362
#        201580
#        214062
#
# Disc length: 3077 seconds
#
# Revision: 4
# Processed by: cddbd v1.5.2PL0 Copyright (c) Steve Scherf et al.
# Submitted via: ExactAudioCopy v0.95b4
#
DISCID=d40c030e
DTITLE=Various Artist - Prime Chops
DYEAR=1990
DGENRE=Blues
TTITLE0=Big Daddy Kinsey and Sons - Can't Let Go
TTITLE1=Hubert Sumlin - Bring Your Love To Me
TTITLE2=Joanna Connor - When You're Being Nice
TTITLE3=Otis Rush - Crosscut Saw
TTITLE4=Pinetop Perkins - Sit In The Easy Chair
TTITLE5=Mr. B and J.C. Heard - He May Be Your Man
TTITLE6=Mitch Woods And His Rocket 88s - Broke
TTITLE7=Henry Gray - Gray's Bounce
TTITLE8=Roy Rogers - Walkin' Blues
TTITLE9=James Cotton - My Babe
TTITLE10=Snooky Pryor - Nine Below Zero
TTITLE11=Yank Rachell - My Baby's Gone
TTITLE12=Walter Horton - Hard Hearted Woman
TTITLE13=Buddy Guy and Junior Wells - Messing With the Kid
EXTD=YEAR: 1990
EXTT0=
EXTT1=
EXTT2=
EXTT3=
EXTT4=
EXTT5=
EXTT6=
EXTT7=
EXTT8=
EXTT9=
EXTT10=
EXTT11=
EXTT12=
EXTT13=
PLAYORDER=
